<svg width="49" height="49" viewBox="0 0 49 49" fill="none" xmlns="http://www.w3.org/2000/svg">
<path d="M24.394 30.2749L21.5066 33.1622L12.8446 24.5002L21.5066 15.8381L24.394 18.7255L20.6609 22.4585H36.0493V26.5418H20.6609L24.394 30.2749Z" fill="#AE5537"/>
<path fill-rule="evenodd" clip-rule="evenodd" d="M8.61956 40.3805C-0.150965 31.61 -0.150965 17.3902 8.61956 8.61964C17.3901 -0.150883 31.6099 -0.150883 40.3804 8.61964C49.151 17.3902 49.151 31.61 40.3804 40.3805C31.6099 49.151 17.3901 49.151 8.61956 40.3805ZM11.5069 37.4932C4.33103 30.3173 4.33103 18.6829 11.5069 11.507C18.6828 4.33111 30.3172 4.33111 37.4931 11.507C44.669 18.6829 44.669 30.3173 37.4931 37.4932C30.3172 44.669 18.6828 44.669 11.5069 37.4932Z" fill="#AE5537"/>
</svg>
