<svg width="14" height="14" viewBox="0 0 14 14" fill="none" xmlns="http://www.w3.org/2000/svg">
<g clip-path="url(#clip0_1222_47623)">
<path d="M6.5 12.5C9.81371 12.5 12.5 9.81371 12.5 6.5C12.5 3.18629 9.81371 0.5 6.5 0.5C3.18629 0.5 0.5 3.18629 0.5 6.5C0.5 9.81371 3.18629 12.5 6.5 12.5Z" stroke="white" stroke-linecap="round" stroke-linejoin="round"/>
<path d="M10.74 10.74L13.5 13.5" stroke="white" stroke-linecap="round" stroke-linejoin="round"/>
<path d="M3.50012 5.84857C3.50012 5.3601 3.89611 4.96411 4.38459 4.96411H8.61531C9.10379 4.96411 9.49977 5.3601 9.49977 5.84857V8.36511C9.49977 8.85359 9.10379 9.24958 8.61531 9.24958H4.38459C3.89611 9.24958 3.50012 8.85359 3.50012 8.36511V5.84857Z" stroke="white" stroke-linecap="round" stroke-linejoin="round"/>
<path d="M5.21436 4.76006V4.25C5.21436 3.69772 5.66207 3.25 6.21436 3.25H6.78563C7.33792 3.25 7.78563 3.69772 7.78563 4.25V4.76006" stroke="white" stroke-linecap="round" stroke-linejoin="round"/>
</g>
<defs>
<clipPath id="clip0_1222_47623">
<rect width="14" height="14" fill="white"/>
</clipPath>
</defs>
</svg>
