<svg width="337" height="46" viewBox="0 0 337 46" fill="none" xmlns="http://www.w3.org/2000/svg">
<g clip-path="url(#clip0_2049_1568)">
<path d="M65.1498 0.997153C76.0247 -0.0775096 83.4701 6.01594 84.4879 5.97162C86.3243 5.89407 85.1074 -1.61749 92.2209 1.5511C96.2035 3.32374 84.167 42.1446 110.453 39.1643C125.177 37.4914 123.905 19.8314 123.429 9.01835C122.611 7.16816 112.964 8.79677 112.101 8.18742C111.758 7.94368 111.625 1.5511 111.824 1.27413C112.355 0.531835 124.492 1.26305 126.461 0.997153C130.764 1.94995 129.946 29.0492 129.503 31.6971C126.372 50.3209 81.9655 56.0819 85.3176 15.1007C59.9834 -4.04379 35.6227 24.5622 56.8747 35.8406C73.5466 44.6927 82.4854 31.8189 83.9458 31.963C84.6538 32.0405 91.5903 36.8931 82.2863 42.4769C66.422 51.9938 38.5876 40.9259 41.6852 20.0752C43.0681 10.7245 56.2884 1.87239 65.1498 0.997153Z" fill="#AE5537"/>
<path d="M301.012 0.443183C303.181 -0.476373 325.683 26.8888 328.625 30.3122C330.661 30.3565 328.625 2.99135 329.455 1.82806C329.776 1.37382 336.314 1.37382 336.635 1.82806C335.595 6.9244 338.106 43.4629 336.358 44.7038C336.137 44.8589 331.092 44.7924 330.838 44.7038C329.134 44.1166 310.67 20.2746 307.639 17.0506C305.526 32.1402 312.241 49.8444 300.182 43.8839C300.455 29.4074 300.732 14.9345 301.012 0.465341V0.443183Z" fill="#AE5537"/>
<path d="M1.07309 0.997092C1.77006 0.68688 6.95859 0.764433 7.42323 1.82802C9.7907 7.16809 1.08415 36.3945 17.0923 39.1642C21.8715 39.9952 29.3722 38.0342 31.7286 33.3588C34.4169 28.0188 31.8503 3.21289 32.8349 1.82802C33.1557 1.37378 39.6939 1.37378 40.0147 1.82802C40.8776 3.04671 40.2581 30.2235 40.0147 31.697C36.895 50.3319 3.41844 51.9272 0.243366 29.4812C-0.132774 26.8222 -0.221278 1.5732 1.07309 0.997092Z" fill="#AE5537"/>
<path d="M244.945 1.27411C240.133 0.742322 206.003 -0.731185 204.344 0.443189C203.89 0.76448 203.89 7.86612 204.344 8.18741C205.218 8.80783 215.938 7.14598 216.768 9.01833V41.1031C216.027 42.5988 210.152 31.0988 209.588 30.0352C204.775 21.028 197.452 2.91381 196.334 1.82806C195.283 0.808796 189.276 0.598295 188.325 0.997139C186.156 1.90562 172.438 39.408 168.71 43.8729C178.7 47.6951 177.118 41.0145 181.145 33.0819H203.791C205.635 36.9522 207.475 40.8224 209.311 44.6927H223.671C223.767 32.8013 223.859 20.9098 223.948 9.01833C228.646 8.74505 233.344 8.46808 238.042 8.18741C239.093 13.5718 237.555 42.1556 238.318 43.8729C238.783 44.9254 243.972 45.0029 244.669 44.6927C246.826 43.7288 243.972 6.28182 244.945 1.27411ZM185.283 25.0607C187.399 20.1712 189.516 15.2854 191.633 10.4032L198.824 25.3377C194.31 25.2417 189.796 25.1494 185.283 25.0607Z" fill="#AE5537"/>
<path d="M268.974 0.997163C250.532 3.06894 237.146 26.3902 254.061 39.7183C268.033 50.7308 291.387 44.8478 297.417 32.805C306.079 15.4996 287.338 -1.06353 268.974 0.997163ZM275.047 38.6104C248.065 40.8483 248.032 9.51691 271.175 8.18743C295.846 6.76932 298.943 36.6272 275.047 38.6104Z" fill="#AE5537"/>
<path d="M173.135 11.2341C169.628 -5.22926 145.566 2.00532 133.641 0.443185C133.276 5.47305 131.306 42.8757 133.087 44.1498C133.342 44.3271 139.183 44.2274 139.438 43.8729C140.046 43.0087 138.42 33.3478 140.267 32.528C154.384 34.3117 177.24 30.5227 173.135 11.2341ZM139.714 25.8916V8.1874C144.936 8.73028 158.632 7.23461 162.36 8.74135C169.33 11.5443 168.821 29.0048 139.714 25.8916Z" fill="#AE5537"/>
</g>
<defs>
<clipPath id="clip0_2049_1568">
<rect width="337" height="46" fill="white"/>
</clipPath>
</defs>
</svg>
