<svg width="14" height="14" viewBox="0 0 14 14" fill="none" xmlns="http://www.w3.org/2000/svg">
<g clip-path="url(#clip0_1222_43643)">
<path d="M10.438 7.99993C9.5488 7.99993 8.82794 7.27907 8.82794 6.38986C8.82794 5.50064 9.5488 4.77979 10.438 4.77979C11.3272 4.77979 12.0481 5.50064 12.0481 6.38986C12.0481 7.27907 11.3272 7.99993 10.438 7.99993Z" stroke="white" stroke-linecap="round" stroke-linejoin="round"/>
<path d="M8.09886 10.4851C8.32065 10.2507 8.5773 10.05 8.86089 9.89066C9.3425 9.62013 9.8856 9.47803 10.438 9.47803C10.9904 9.47803 11.5335 9.62013 12.0151 9.89066C12.2234 10.0077 12.4172 10.147 12.5933 10.3057" stroke="white" stroke-linecap="round" stroke-linejoin="round"/>
<path d="M5.22894 7.48328C4.12704 7.48328 3.23376 6.59 3.23376 5.4881C3.23376 4.38619 4.12704 3.49292 5.22894 3.49292C6.33085 3.49292 7.22412 4.38619 7.22412 5.4881C7.22412 6.59 6.33085 7.48328 5.22894 7.48328Z" stroke="white" stroke-linecap="round" stroke-linejoin="round"/>
<path d="M8.96655 13.1811C8.86704 11.9894 8.57009 11.2058 8.40728 10.9299C8.06066 10.3406 7.57351 9.85349 6.99265 9.51551C6.4118 9.17752 5.75676 9 5.09053 9C4.4243 9 3.76929 9.17752 3.18843 9.51551C2.72462 9.78539 2.32055 10.1503 2.00006 10.5865L1.79688 10.8906" stroke="white" stroke-linecap="round" stroke-linejoin="round"/>
<path d="M7 13.5C3.41015 13.5 0.5 10.5899 0.5 7C0.5 3.41015 3.41015 0.5 7 0.5C10.5899 0.5 13.5 3.41015 13.5 7C13.5 10.5899 10.5899 13.5 7 13.5Z" stroke="white" stroke-linecap="round" stroke-linejoin="round"/>
</g>
<defs>
<clipPath id="clip0_1222_43643">
<rect width="14" height="14" fill="white"/>
</clipPath>
</defs>
</svg>
